<?xml version="1.0" encoding="UTF-8"?>
<svg version="1.1" xmlns="http://www.w3.org/2000/svg" width="878" height="712">
<path d="M0 0 C0.81724548 0.21837524 1.63449097 0.43675049 2.47650146 0.66174316 C11.32854955 3.07996395 20.00693208 5.99541988 28.70040894 8.92376709 C65.96040573 21.42645683 103.85011503 31.73130642 142.296875 39.87890625 C143.10541931 40.0503717 143.91396362 40.22183716 144.74700928 40.39849854 C188.20383627 49.56903548 232.06146126 55.95438379 276.296875 59.87890625 C277.22111267 59.96247375 278.14535034 60.04604126 279.09759521 60.13214111 C335.7630896 65.20971234 394.06805477 65.07261182 450.73486328 60.10351562 C453.25898089 59.88222839 455.78368277 59.66905046 458.30859375 59.45703125 C516.37640342 54.50430312 573.84429773 44.23726752 630.296875 29.87890625 C631.01929382 29.69561768 631.74171265 29.5123291 632.48602295 29.32348633 C662.15634963 21.77119579 691.46043422 12.61780228 720.4618988 2.82478333 C738.94772206 -3.40924217 756.13079661 -5.621689 774.41015625 2.40625 C788.5389402 9.61403288 797.60037047 22.56307605 802.4453125 37.39453125 C805.99187813 51.90616678 804.37622367 66.71348487 797.296875 79.87890625 C790.98789382 89.75819723 781.70478574 97.66444249 770.43359375 101.25 C754.71101634 104.4023474 741.11235951 100.52135477 727.82739258 91.74267578 C723.69143355 88.92205357 719.65468933 85.96669592 715.61474609 83.01098633 C697.64434848 68.82568837 697.64434848 68.82568837 675.94921875 65.234375 C670.87306353 66.7999182 668.26381985 69.5633501 665.296875 73.87890625 C663.48166941 79.32452303 663.51322913 84.12353951 665.859375 89.37890625 C668.93364242 92.53200104 670.97656259 92.71274039 675.296875 92.87890625 C674.636875 91.88890625 673.976875 90.89890625 673.296875 89.87890625 C670.87100008 85.59030595 670.675418 82.77288012 671.296875 77.87890625 C673.01980466 74.43304692 674.33566209 72.47641698 677.609375 70.44140625 C681.27713008 69.67373658 683.68104505 69.84581198 687.296875 70.87890625 C689.91815709 73.06330799 691.7441071 75.60328802 693.109375 78.75390625 C693.83016053 86.92280893 693.01738072 92.79814768 688.421875 99.69140625 C683.96041622 104.28408441 679.33594056 105.97649214 673.046875 106.19140625 C667.18505322 106.09515302 662.81645026 104.23646891 658.53515625 100.23046875 C652.53080174 93.57188675 651.7469373 87.50467941 651.98828125 78.67578125 C652.71306885 69.75814143 656.57239848 62.76112511 663.296875 56.87890625 C671.16804624 51.80310424 679.26428125 50.62557638 688.41796875 52.52734375 C701.09206052 56.08765284 710.84832376 63.20980137 721.28930664 70.88598633 C726.51995292 74.69453863 731.8496589 78.21509077 737.421875 81.50390625 C738.09565186 81.90520752 738.76942871 82.30650879 739.46362305 82.7199707 C748.71072018 88.06062 757.2395682 90.74914243 767.97265625 88.2578125 C777.15944804 85.04314974 783.38962327 79.23354058 787.796875 70.62890625 C793.03429259 59.3975552 792.6159708 47.40384393 788.5546875 35.81640625 C783.53347181 24.0898404 774.99381625 16.6929535 763.296875 11.87890625 C752.66015696 8.86573731 740.8799621 10.26717406 730.4921875 13.46484375 C729.59392746 13.73151352 728.69566742 13.99818329 727.77018738 14.27293396 C716.73582728 17.58300847 705.80521568 21.22067084 694.87280273 24.84985352 C685.34580742 28.00680321 675.81824953 31.10448438 666.15234375 33.8125 C665.02545891 34.13022118 665.02545891 34.13022118 663.87580872 34.45436096 C660.92511365 35.26272911 658.37140173 35.87890625 655.296875 35.87890625 C655.07902344 36.66523438 654.86117187 37.4515625 654.63671875 38.26171875 C652.85880082 43.06157881 650.4135482 47.32811641 647.859375 51.75390625 C647.32368896 52.68428711 646.78800293 53.61466797 646.23608398 54.57324219 C636.12332383 71.92471934 624.21470054 88.81305663 610.4921875 103.5078125 C608.64297617 105.50509235 606.86223561 107.536245 605.0859375 109.59765625 C601.0838339 114.18422283 596.8523762 118.51548879 592.546875 122.81640625 C591.75337646 123.60909912 590.95987793 124.40179199 590.14233398 125.21850586 C584.4530516 130.84866376 578.62532207 135.97560553 572.296875 140.87890625 C570.58715267 142.31475393 568.87887394 143.75232194 567.171875 145.19140625 C510.63793515 191.25017478 438.22757005 215.08493439 365.734375 215.12890625 C364.73377045 215.12958099 363.73316589 215.13025574 362.70223999 215.13095093 C346.70250099 215.11384951 331.11768683 214.45474417 315.296875 211.87890625 C314.26288574 211.71793457 313.22889648 211.55696289 312.16357422 211.39111328 C284.01838893 206.89669115 257.3249885 198.36759249 231.296875 186.87890625 C230.42144043 186.49766602 229.54600586 186.11642578 228.64404297 185.72363281 C187.36913491 167.60532373 147.2426337 137.58028878 118.296875 102.87890625 C117.84473633 102.34056152 117.39259766 101.8022168 116.92675781 101.24755859 C102.35906536 83.8454493 86.06663242 63.99642655 77.4730072 42.85177612 C75.74787246 38.76387002 74.90827645 37.20160358 70.84985352 35.05957031 C69.46775059 34.63947524 68.07515672 34.25291186 66.67578125 33.89453125 C65.53551231 33.56051804 65.53551231 33.56051804 64.37220764 33.21975708 C61.87513833 32.49429074 59.36826887 31.81223229 56.859375 31.12890625 C54.22521999 30.37421158 51.59438208 29.60858805 48.96337891 28.84298706 C47.15131287 28.3168763 45.33814115 27.79456001 43.52392578 27.27590942 C33.11182897 24.29114068 22.84421183 20.88117886 12.56497192 17.47229004 C-3.97329624 11.99798332 -22.44890725 5.9921187 -39.12890625 14.34375 C-50.25771365 20.98050464 -56.85863898 29.13668643 -60.203125 41.75390625 C-62.70943807 52.37781218 -62.34191313 63.27898596 -56.703125 72.87890625 C-51.10225216 80.53380661 -44.28415673 87.02451301 -34.703125 88.87890625 C-26.76613886 89.65231864 -20.8000964 88.39971265 -13.703125 84.87890625 C-12.88714844 84.48960937 -12.07117187 84.1003125 -11.23046875 83.69921875 C-4.44545361 80.24019142 1.63613658 75.90562719 7.81542969 71.48999023 C37.61425028 50.19897761 37.61425028 50.19897761 54.296875 51.87890625 C62.0224387 53.80245662 68.56940041 56.55611634 72.953125 63.50390625 C77.88721316 72.25493054 79.93285096 80.12412255 77.80078125 90.23046875 C75.72588375 96.30276764 72.22181258 101.01770232 66.609375 104.25390625 C61.19562481 106.68040822 55.72657353 106.94432744 50.05859375 105.18359375 C44.46785397 102.67776312 40.85755691 99.13169591 38.18359375 93.55859375 C36.23565816 87.67188091 36.57156621 81.17571741 38.421875 75.31640625 C40.80775457 72.21476281 42.57496265 71.09568529 46.296875 69.87890625 C50.97243337 69.79687891 52.69643375 70.33067729 56.171875 73.50390625 C58.5496902 77.28043627 59.296875 79.42753574 59.296875 83.87890625 C58.28744081 87.41550545 56.92807936 90.24770189 54.296875 92.87890625 C59.36999498 92.50328994 59.36999498 92.50328994 63.671875 90.00390625 C66.64875236 86.11106662 66.68761837 82.64597542 66.296875 77.87890625 C64.86078709 73.48037414 63.01781622 70.51792233 59.546875 67.44140625 C52.84631401 64.2199827 47.76752146 64.47049211 40.90234375 66.828125 C31.73735103 70.52435145 24.05859828 76.10863141 16.13842773 81.90966797 C-0.85034753 94.33978557 -15.94389716 104.08429763 -37.703125 101.87890625 C-50.08153992 98.73690159 -60.73200251 90.22284096 -67.24609375 79.2890625 C-74.80477495 64.54852585 -75.71867231 49.41673846 -71.03515625 33.49609375 C-65.4387473 18.29880727 -55.69915855 8.09759902 -41.265625 1.06640625 C-27.74809792 -4.65399976 -13.93360662 -3.76962571 0 0 Z " fill="#F9C93E" transform="translate(73.703125,461.12109375)"/>
<path d="M0 0 C0.81724548 0.21837524 1.63449097 0.43675049 2.47650146 0.66174316 C11.32854955 3.07996395 20.00693208 5.99541988 28.70040894 8.92376709 C65.96040573 21.42645683 103.85011503 31.73130642 142.296875 39.87890625 C143.10541931 40.0503717 143.91396362 40.22183716 144.74700928 40.39849854 C188.20383627 49.56903548 232.06146126 55.95438379 276.296875 59.87890625 C277.22111267 59.96247375 278.14535034 60.04604126 279.09759521 60.13214111 C335.7630896 65.20971234 394.06805477 65.07261182 450.73486328 60.10351562 C453.25898089 59.88222839 455.78368277 59.66905046 458.30859375 59.45703125 C516.37640342 54.50430312 573.84429773 44.23726752 630.296875 29.87890625 C631.01929382 29.69561768 631.74171265 29.5123291 632.48602295 29.32348633 C662.15634963 21.77119579 691.46043422 12.61780228 720.4618988 2.82478333 C738.94772206 -3.40924217 756.13079661 -5.621689 774.41015625 2.40625 C788.5389402 9.61403288 797.60037047 22.56307605 802.4453125 37.39453125 C805.99187813 51.90616678 804.37622367 66.71348487 797.296875 79.87890625 C790.98789382 89.75819723 781.70478574 97.66444249 770.43359375 101.25 C754.71101634 104.4023474 741.11235951 100.52135477 727.82739258 91.74267578 C723.69143355 88.92205357 719.65468933 85.96669592 715.61474609 83.01098633 C697.64434848 68.82568837 697.64434848 68.82568837 675.94921875 65.234375 C670.87306353 66.7999182 668.26381985 69.5633501 665.296875 73.87890625 C663.48166941 79.32452303 663.51322913 84.12353951 665.859375 89.37890625 C668.93364242 92.53200104 670.97656259 92.71274039 675.296875 92.87890625 C674.636875 91.88890625 673.976875 90.89890625 673.296875 89.87890625 C670.87100008 85.59030595 670.675418 82.77288012 671.296875 77.87890625 C673.01980466 74.43304692 674.33566209 72.47641698 677.609375 70.44140625 C681.27713008 69.67373658 683.68104505 69.84581198 687.296875 70.87890625 C689.91815709 73.06330799 691.7441071 75.60328802 693.109375 78.75390625 C693.83016053 86.92280893 693.01738072 92.79814768 688.421875 99.69140625 C683.96041622 104.28408441 679.33594056 105.97649214 673.046875 106.19140625 C667.18505322 106.09515302 662.81645026 104.23646891 658.53515625 100.23046875 C652.53080174 93.57188675 651.7469373 87.50467941 651.98828125 78.67578125 C652.71306885 69.75814143 656.57239848 62.76112511 663.296875 56.87890625 C671.16804624 51.80310424 679.26428125 50.62557638 688.41796875 52.52734375 C701.09206052 56.08765284 710.84832376 63.20980137 721.28930664 70.88598633 C726.51995292 74.69453863 731.8496589 78.21509077 737.421875 81.50390625 C738.09565186 81.90520752 738.76942871 82.30650879 739.46362305 82.7199707 C748.71072018 88.06062 757.2395682 90.74914243 767.97265625 88.2578125 C777.15944804 85.04314974 783.38962327 79.23354058 787.796875 70.62890625 C793.03429259 59.3975552 792.6159708 47.40384393 788.5546875 35.81640625 C783.53347181 24.0898404 774.99381625 16.6929535 763.296875 11.87890625 C752.66015696 8.86573731 740.8799621 10.26717406 730.4921875 13.46484375 C729.59392746 13.73151352 728.69566742 13.99818329 727.77018738 14.27293396 C716.73582728 17.58300847 705.80521568 21.22067084 694.87280273 24.84985352 C685.34580742 28.00680321 675.81824953 31.10448438 666.15234375 33.8125 C665.02545891 34.13022118 665.02545891 34.13022118 663.87580872 34.45436096 C660.92511365 35.26272911 658.37140173 35.87890625 655.296875 35.87890625 C655.07902344 36.66523438 654.86117187 37.4515625 654.63671875 38.26171875 C652.85880082 43.06157881 650.4135482 47.32811641 647.859375 51.75390625 C647.32368896 52.68428711 646.78800293 53.61466797 646.23608398 54.57324219 C636.12332383 71.92471934 624.21470054 88.81305663 610.4921875 103.5078125 C608.64297617 105.50509235 606.86223561 107.536245 605.0859375 109.59765625 C601.0838339 114.18422283 596.8523762 118.51548879 592.546875 122.81640625 C591.75337646 123.60909912 590.95987793 124.40179199 590.14233398 125.21850586 C584.4530516 130.84866376 578.62532207 135.97560553 572.296875 140.87890625 C570.58715267 142.31475393 568.87887394 143.75232194 567.171875 145.19140625 C510.63793515 191.25017478 438.22757005 215.08493439 365.734375 215.12890625 C364.73377045 215.12958099 363.73316589 215.13025574 362.70223999 215.13095093 C346.70250099 215.11384951 331.11768683 214.45474417 315.296875 211.87890625 C314.26288574 211.71793457 313.22889648 211.55696289 312.16357422 211.39111328 C284.01838893 206.89669115 257.3249885 198.36759249 231.296875 186.87890625 C230.42144043 186.49766602 229.54600586 186.11642578 228.64404297 185.72363281 C187.36913491 167.60532373 147.2426337 137.58028878 118.296875 102.87890625 C117.84473633 102.34056152 117.39259766 101.8022168 116.92675781 101.24755859 C102.35906536 83.8454493 86.06663242 63.99642655 77.4730072 42.85177612 C75.74787246 38.76387002 74.90827645 37.20160358 70.84985352 35.05957031 C69.46775059 34.63947524 68.07515672 34.25291186 66.67578125 33.89453125 C65.53551231 33.56051804 65.53551231 33.56051804 64.37220764 33.21975708 C61.87513833 32.49429074 59.36826887 31.81223229 56.859375 31.12890625 C54.22521999 30.37421158 51.59438208 29.60858805 48.96337891 28.84298706 C47.15131287 28.3168763 45.33814115 27.79456001 43.52392578 27.27590942 C33.11182897 24.29114068 22.84421183 20.88117886 12.56497192 17.47229004 C-3.97329624 11.99798332 -22.44890725 5.9921187 -39.12890625 14.34375 C-50.25771365 20.98050464 -56.85863898 29.13668643 -60.203125 41.75390625 C-62.70943807 52.37781218 -62.34191313 63.27898596 -56.703125 72.87890625 C-51.10225216 80.53380661 -44.28415673 87.02451301 -34.703125 88.87890625 C-26.76613886 89.65231864 -20.8000964 88.39971265 -13.703125 84.87890625 C-12.88714844 84.48960937 -12.07117187 84.1003125 -11.23046875 83.69921875 C-4.44545361 80.24019142 1.63613658 75.90562719 7.81542969 71.48999023 C37.61425028 50.19897761 37.61425028 50.19897761 54.296875 51.87890625 C62.0224387 53.80245662 68.56940041 56.55611634 72.953125 63.50390625 C77.88721316 72.25493054 79.93285096 80.12412255 77.80078125 90.23046875 C75.72588375 96.30276764 72.22181258 101.01770232 66.609375 104.25390625 C61.19562481 106.68040822 55.72657353 106.94432744 50.05859375 105.18359375 C44.46785397 102.67776312 40.85755691 99.13169591 38.18359375 93.55859375 C36.23565816 87.67188091 36.57156621 81.17571741 38.421875 75.31640625 C40.80775457 72.21476281 42.57496265 71.09568529 46.296875 69.87890625 C50.97243337 69.79687891 52.69643375 70.33067729 56.171875 73.50390625 C58.5496902 77.28043627 59.296875 79.42753574 59.296875 83.87890625 C58.28744081 87.41550545 56.92807936 90.24770189 54.296875 92.87890625 C59.36999498 92.50328994 59.36999498 92.50328994 63.671875 90.00390625 C66.64875236 86.11106662 66.68761837 82.64597542 66.296875 77.87890625 C64.86078709 73.48037414 63.01781622 70.51792233 59.546875 67.44140625 C52.84631401 64.2199827 47.76752146 64.47049211 40.90234375 66.828125 C31.73735103 70.52435145 24.05859828 76.10863141 16.13842773 81.90966797 C-0.85034753 94.33978557 -15.94389716 104.08429763 -37.703125 101.87890625 C-50.08153992 98.73690159 -60.73200251 90.22284096 -67.24609375 79.2890625 C-74.80477495 64.54852585 -75.71867231 49.41673846 -71.03515625 33.49609375 C-65.4387473 18.29880727 -55.69915855 8.09759902 -41.265625 1.06640625 C-27.74809792 -4.65399976 -13.93360662 -3.76962571 0 0 Z M110.296875 45.87890625 C115.87659041 56.40935097 122.91457119 65.56915683 130.296875 74.87890625 C131.10640625 75.905 131.9159375 76.93109375 132.75 77.98828125 C145.60332916 93.9855902 160.064818 109.29333189 176.296875 121.87890625 C177.63525525 122.95561491 178.97239613 124.03386514 180.30859375 125.11328125 C216.85118531 154.40005042 260.38613252 174.65394146 306.296875 183.87890625 C307.03647461 184.02908203 307.77607422 184.17925781 308.53808594 184.33398438 C325.80113008 187.76964599 342.87571343 189.21871438 360.46484375 189.13964844 C363.29448863 189.1289153 366.12349898 189.13962413 368.953125 189.15234375 C380.5346125 189.16172091 391.82620462 188.46418677 403.296875 186.87890625 C404.99021973 186.65195068 404.99021973 186.65195068 406.71777344 186.42041016 C439.91267364 181.7551527 472.82435147 172.14117967 502.296875 155.87890625 C503.07450195 155.45383789 503.85212891 155.02876953 504.65332031 154.59082031 C521.51742881 145.32224012 537.30288232 134.9363624 552.296875 122.87890625 C553.31136719 122.07066406 554.32585937 121.26242187 555.37109375 120.4296875 C572.22898968 106.65470285 588.58649662 90.57285025 601.296875 72.87890625 C602.85840989 70.83650134 604.42089608 68.79482337 605.984375 66.75390625 C614.25646965 57.07085341 614.25646965 57.07085341 618.296875 45.87890625 C610.85622405 46.97479326 603.52125555 48.43155858 596.171875 50.015625 C575.75997971 54.40739876 555.36567277 58.58244531 534.734375 61.81640625 C533.86417725 61.95347992 532.99397949 62.09055359 532.09741211 62.23178101 C526.17016023 63.15905868 520.23675793 64.03648471 514.296875 64.87890625 C513.41557922 65.00426758 512.53428345 65.12962891 511.62628174 65.25878906 C496.75601313 67.34831618 481.85683795 68.87332748 466.89941406 70.18652344 C463.29942664 70.50368145 459.70051334 70.83146707 456.1015625 71.16015625 C453.72922349 71.37173187 451.35682929 71.58268979 448.984375 71.79296875 C447.43327026 71.93516342 447.43327026 71.93516342 445.85083008 72.08023071 C427.53238858 73.66366109 409.16655195 74.0395978 390.7890625 74.046875 C388.80306986 74.05010905 386.81707742 74.05347448 384.83108521 74.05696106 C380.69841971 74.06288397 376.56577489 74.06480833 372.43310547 74.06420898 C368.28397215 74.06412817 364.13495031 74.07101172 359.98583984 74.0847168 C323.88882535 74.20178968 288.213074 72.95467881 252.296875 69.19140625 C251.04992859 69.06263092 249.80298218 68.93385559 248.51824951 68.80117798 C205.59782444 64.33718506 162.6002631 57.66270017 120.72381592 47.08161926 C117.17189166 46.20826226 113.95708694 45.68392382 110.296875 45.87890625 Z " fill="#F68001" transform="translate(73.703125,461.12109375)"/>
<path d="M0 0 C1.6557605 0.22369263 1.6557605 0.22369263 3.3449707 0.4519043 C10.86293998 1.5932173 17.80012335 3.14832392 23 9.125 C26.74285556 14.40903137 28.11005916 18.66000039 28.125 25.125 C26.59012665 33.15069615 22.77763861 40.33095145 19.09375 47.54296875 C18.18944694 49.33928898 17.28514608 51.13561032 16.38095856 52.93198872 C15.11904991 55.43399551 13.84972387 57.9322075 12.58044434 60.43048096 C10.08985475 65.33640467 7.61296784 70.24927643 5.13586426 75.16201973 C4.52352605 76.3761605 3.91081328 77.59011242 3.29772949 78.80387688 C-1.25627082 87.82255127 -5.6684655 96.9009244 -9.99645996 106.03005981 C-14.03948099 114.53289172 -18.29797234 122.91537767 -22.6265564 131.27575684 C-24.7857832 135.44695085 -26.93311012 139.6242714 -29.08203125 143.80078125 C-29.70752617 145.01548599 -29.70752617 145.01548599 -30.34565735 146.25473022 C-33.78779632 152.94331487 -37.19490961 159.64850454 -40.5625 166.375 C-41.00142578 167.24842041 -41.44035156 168.12184082 -41.89257812 169.02172852 C-42.47749023 170.19433228 -42.47749023 170.19433228 -43.07421875 171.390625 C-43.56668091 172.37724121 -43.56668091 172.37724121 -44.0690918 173.38378906 C-44.9952546 175.2999301 -44.9952546 175.2999301 -45.875 178.125 C-45.04995972 178.33890381 -45.04995972 178.33890381 -44.20825195 178.55712891 C-36.8895041 180.5922173 -30.02893894 183.50877221 -23.10327148 186.59173584 C-21.01087132 187.52297782 -18.91498661 188.44599405 -16.81835938 189.36767578 C-9.91248929 192.41014249 -3.0301576 195.49951075 3.82421875 198.65625 C35.23096025 214.39583374 35.23096025 214.39583374 69.38671875 216.62890625 C72.53021109 215.42196885 74.16206167 214.07812789 76.25 211.4375 C78.125 209.125 78.125 209.125 80.875 208.8125 C81.98875 208.9671875 81.98875 208.9671875 83.125 209.125 C83.7785662 219.14634835 80.16376107 228.19226386 74.125 236.125 C67.22199064 243.17939114 58.09388813 246.29591801 48.375 246.625 C24.93684135 245.83437659 1.29313772 232.16028143 -18.9375 221.3125 C-34.50399573 212.99425084 -50.64189959 205.76502886 -66.9375 199 C-68.24714722 198.45073853 -68.24714722 198.45073853 -69.58325195 197.89038086 C-78.96199714 194.07386265 -88.79083658 191.35395915 -98.875 193.875 C-101.22034325 195.34083953 -101.93296011 196.5558003 -102.875 199.125 C-104.525 198.795 -106.175 198.465 -107.875 198.125 C-107.37425239 192.87716505 -106.03168816 188.84344301 -103.5625 184.25 C-102.821912 182.82150605 -102.08378969 181.39173207 -101.34765625 179.9609375 C-100.94691895 179.18459961 -100.54618164 178.40826172 -100.13330078 177.60839844 C-97.83512114 173.07268185 -95.68025975 168.46821887 -93.5 163.875 C-88.40199784 153.18284786 -83.12812111 142.58511135 -77.8125 132 C-72.4576719 121.3365761 -67.163303 110.6557529 -62.06835938 99.86499023 C-58.31213181 91.9485554 -54.37857899 84.12587386 -50.43795776 76.30026245 C-42.45651503 60.43604756 -42.45651503 60.43604756 -34.75 44.4375 C-34.33032959 43.57825928 -33.91065918 42.71901855 -33.47827148 41.83374023 C-31.19291003 36.88086833 -30.30038579 33.5873785 -31.875 28.125 C-39.09044056 20.70913054 -48.86036268 21.11645591 -58.5625 20.875 C-69.94328939 20.99883884 -81.94475985 22.43559321 -90.875 30.125 C-92.13989347 32.20837213 -92.13989347 32.20837213 -92.875 34.125 C-92.18535156 34.01800781 -91.49570313 33.91101563 -90.78515625 33.80078125 C-82.42418399 32.73415516 -77.02567949 33.9698395 -69.625 37.8125 C-64.72089704 41.93640476 -61.23588281 47.44915084 -60.6015625 53.91015625 C-60.35915061 61.73260153 -60.99143841 67.80038744 -65.875 74.125 C-71.530199 79.57620385 -78.10906231 81.76536179 -85.875 82.125 C-92.81410822 81.76627389 -97.97532954 78.97298617 -102.875 74.125 C-110.9932737 64.18837993 -112.86867115 54.67410011 -112.08203125 42.1328125 C-110.9749061 31.39578742 -103.98028688 19.005859 -96.0625 11.77734375 C-68.30458895 -9.18979263 -32.37315787 -4.55062349 0 0 Z " fill="#F68205" transform="translate(235.875,254.875)"/>
<path d="M0 0 C1.43384682 1.20908165 2.85107499 2.4381786 4.25 3.6875 C4.92675781 4.25984375 5.60351562 4.8321875 6.30078125 5.421875 C18.72019726 16.70786858 25.53753428 34.86265992 26.38891602 51.38305664 C26.99756341 70.020827 26.12314998 86.91724653 17.25 103.6875 C16.6442259 104.91587526 16.03976567 106.14490077 15.4375 107.375 C15.045625 108.138125 14.65375 108.90125 14.25 109.6875 C10.37645638 108.25644452 6.97001355 106.44329422 3.43359375 104.31640625 C2.33982422 103.65962891 1.24605469 103.00285156 0.11914062 102.32617188 C-0.44442139 101.98513428 -1.0079834 101.64409668 -1.58862305 101.29272461 C-3.30836927 100.25249856 -5.03180099 99.21860678 -6.75585938 98.18554688 C-12.98914515 94.43086559 -12.98914515 94.43086559 -15.75 92.6875 C-16.45667816 92.25130844 -17.16335632 91.81511688 -17.89144897 91.3657074 C-19.75 89.6875 -19.75 89.6875 -20.21083069 87.59436035 C-20.19289963 86.78785034 -20.17496857 85.98134033 -20.15649414 85.15039062 C-20.14650894 84.23092651 -20.13652374 83.3114624 -20.12623596 82.36413574 C-20.09617966 81.36740845 -20.06612335 80.37068115 -20.03515625 79.34375 C-20.02238144 78.30545044 -20.00960663 77.26715088 -19.9964447 76.1973877 C-19.95414719 72.86014362 -19.88595833 69.52419397 -19.8125 66.1875 C-18.38198809 38.50219236 -18.38198809 38.50219236 -26.75 12.6875 C-27.27013672 11.80191406 -27.27013672 11.80191406 -27.80078125 10.8984375 C-30.06661153 7.61259428 -32.39288971 6.17683414 -36.125 5.125 C-40.76182731 4.36891169 -43.69013876 5.21974121 -47.75 7.6875 C-60.1077413 19.69216297 -59.13742965 41.35907441 -59.36914062 57.24414062 C-59.39222669 59.41275725 -59.41500962 61.58137712 -59.4375 63.75 C-59.47075718 65.98504496 -59.50525422 68.22007183 -59.54101562 70.45507812 C-59.62494009 75.86576059 -59.69367885 81.27646336 -59.75 86.6875 C-58.76 86.3575 -57.77 86.0275 -56.75 85.6875 C-29.86328837 83.48367118 -2.30982332 107.01908308 18.91918945 120.57617188 C46.97888003 139.55610519 46.97888003 139.55610519 79.25 145.6875 C83.51986716 144.01304229 86.77224475 141.65382065 90.25 138.6875 C91.57 139.6775 92.89 140.6675 94.25 141.6875 C90.94049254 153.65106112 86.31825733 162.55425245 75.640625 169.34765625 C66.67880843 174.37037371 55.57686786 173.91464196 45.875 171.1875 C26.74229701 164.53264679 9.24653038 152.9595878 -6.58789062 140.52050781 C-11.26202275 136.84766858 -11.26202275 136.84766858 -16.75 134.6875 C-19.18657511 135.04886593 -19.18657511 135.04886593 -21.5625 136 C-36.98064089 141.15458556 -54.68247558 139.22669365 -69.1875 132.0625 C-85.98692833 123.29412719 -96.41247328 108.65682898 -102.0625 90.8125 C-104.71595267 81.87808974 -104.96371881 73.45734319 -105 64.1875 C-105.020625 62.90101563 -105.04125 61.61453125 -105.0625 60.2890625 C-105.13591838 42.04459625 -100.2362061 26.5764924 -89.75 11.6875 C-89.31300781 11.05199219 -88.87601562 10.41648437 -88.42578125 9.76171875 C-79.70340041 -1.63238235 -64.42184605 -8.69663638 -50.59375 -11.03125 C-33.12711636 -12.75871926 -14.44156318 -10.83734399 0 0 Z M-53.75 110.6875 C-52.18577613 115.24981963 -50.12055651 119.21977246 -45.9140625 121.82421875 C-43.44384791 122.80962926 -41.64767531 122.8903728 -39 122.8125 C-37.80117188 122.78542969 -37.80117188 122.78542969 -36.578125 122.7578125 C-35.67320312 122.72300781 -35.67320312 122.72300781 -34.75 122.6875 C-35.88648202 119.27805395 -36.28988286 119.08056229 -39.27734375 117.42578125 C-39.98697266 117.02939453 -40.69660156 116.63300781 -41.42773438 116.22460938 C-42.17345703 115.82048828 -42.91917969 115.41636719 -43.6875 115 C-44.42935547 114.58427734 -45.17121094 114.16855469 -45.93554688 113.74023438 C-49.6335576 111.48589511 -49.6335576 111.48589511 -53.75 110.6875 Z " fill="#F6870F" transform="translate(582.75,321.3125)"/>
<path d="M0 0 C8.85789452 8.05113461 12.98591935 15.92460348 14.1015625 27.91015625 C14.24141281 30.89551553 14.26527289 33.87641558 14.27514648 36.86474609 C14.2818335 37.72101593 14.28852051 38.57728577 14.29541016 39.45950317 C14.30937313 41.30369065 14.32129433 43.14789452 14.33135796 44.99210739 C14.34786851 47.90858814 14.37110374 50.82494523 14.39625549 53.74136353 C14.46679899 62.02787064 14.52739706 70.31442374 14.57836914 78.60107422 C14.61008307 83.68077152 14.65131996 88.76031788 14.69856453 93.83989334 C14.71460799 95.77522717 14.72691868 97.71059559 14.73547173 99.64597702 C14.74756883 102.34145322 14.77168844 105.03657042 14.79858398 107.73193359 C14.79917313 108.53503967 14.79976227 109.33814575 14.80036926 110.16558838 C14.69471538 114.50345863 14.69471538 114.50345863 17.1015625 117.91015625 C21.98020833 117.69332755 24.53555682 116.16151437 28.1015625 112.91015625 C29.0915625 113.57015625 30.0815625 114.23015625 31.1015625 114.91015625 C30.19183985 122.00100815 25.24018434 126.47601569 19.76953125 130.71875 C11.21896147 136.2579721 0.8863172 139.33843356 -9.26171875 137.4765625 C-15.79895778 135.87945251 -20.58639401 133.12633789 -24.8984375 127.91015625 C-26.53716619 124.99840387 -27.81049627 122.06661733 -28.8984375 118.91015625 C-29.8678125 119.75578125 -30.8371875 120.60140625 -31.8359375 121.47265625 C-33.18679943 122.6223838 -34.54124178 123.76791234 -35.8984375 124.91015625 C-36.60871094 125.50957031 -37.31898438 126.10898437 -38.05078125 126.7265625 C-48.09083232 134.89623499 -59.82045965 139.24334817 -72.8984375 137.91015625 C-82.33932021 136.40417094 -90.22141215 133.25229504 -96.7109375 126.03515625 C-104.26486491 115.24383139 -106.60115153 102.8157262 -104.36328125 89.796875 C-101.6742243 77.99735188 -95.97175848 69.02465803 -85.7734375 62.28515625 C-77.76903003 57.49757383 -69.39311796 53.86844623 -60.72265625 50.48828125 C-59.05807373 49.83629761 -59.05807373 49.83629761 -57.35986328 49.17114258 C-55.12960394 48.30271592 -52.8949856 47.44538499 -50.65576172 46.6003418 C-42.45370983 43.41952752 -36.37096875 40.40892384 -32.65625 32.07421875 C-30.03766637 24.59640776 -30.72897139 18.13359064 -33.8984375 10.91015625 C-36.18357818 6.94034981 -39.24998762 3.97806811 -43.625 2.3828125 C-52.66320208 0.50373612 -61.86903013 1.19347098 -69.8984375 5.91015625 C-71.66272005 7.30867952 -71.66272005 7.30867952 -72.8984375 8.91015625 C-73.29335648 11.44729939 -73.29335648 11.44729939 -71.8984375 13.91015625 C-69.96136824 15.13107073 -68.01868984 16.0371359 -65.90625 16.91796875 C-63.70790425 18.00431081 -62.43057769 18.99959589 -60.8984375 20.91015625 C-59.49735665 26.91478846 -59.72461177 30.40885832 -62.8984375 35.91015625 C-67.99572639 40.75258069 -72.30719234 41.27339925 -79.10546875 41.18359375 C-83.46333177 40.75694982 -85.45173446 39.6534505 -88.8984375 36.91015625 C-94.00827109 30.03453919 -94.64266351 23.22068001 -93.8984375 14.91015625 C-91.31471521 5.64245672 -85.82885776 -0.07553822 -77.6328125 -4.70703125 C-55.04646788 -16.12926839 -20.18069982 -16.79347989 0 0 Z M-55.2734375 63.53515625 C-56.19734185 64.96300843 -57.07250733 66.42348195 -57.8984375 67.91015625 C-58.3109375 68.63203125 -58.7234375 69.35390625 -59.1484375 70.09765625 C-62.13635175 76.57147047 -62.2812196 83.02544359 -62.3359375 90.03515625 C-62.34608887 90.96537598 -62.35624023 91.8955957 -62.36669922 92.85400391 C-62.27177441 100.38782535 -61.34609719 107.11283089 -56.2734375 112.91015625 C-55.4896875 113.57015625 -54.7059375 114.23015625 -53.8984375 114.91015625 C-53.5684375 115.24015625 -53.2384375 115.57015625 -52.8984375 115.91015625 C-48.32124493 116.49796414 -44.80549647 116.36368573 -40.6484375 114.28515625 C-35.76033783 110.06361563 -31.3688252 105.60187833 -30.69412231 98.87228394 C-30.58416223 96.37134121 -30.542593 93.87832568 -30.52734375 91.375 C-30.51831528 90.45932755 -30.5092868 89.54365509 -30.49998474 88.60023499 C-30.48551214 86.66963966 -30.47660296 84.73899563 -30.47290039 82.80834961 C-30.46096241 79.8538218 -30.41171405 76.90135564 -30.36132812 73.94726562 C-30.35186798 72.06902059 -30.34463099 70.19076276 -30.33984375 68.3125 C-30.32031143 67.43013168 -30.30077911 66.54776337 -30.28065491 65.63865662 C-30.28850618 60.47573011 -30.28850618 60.47573011 -33.26538086 56.35766602 C-41.01399289 52.09790517 -50.12757646 57.18772359 -55.2734375 63.53515625 Z " fill="#F6850C" transform="translate(362.8984375,322.08984375)"/>
<path d="M0 0 C7.06187414 5.65752417 11.72765929 13.48978617 13.5625 22.33984375 C13.84020179 25.40081776 13.85324898 28.44419805 13.84960938 31.51635742 C13.85644241 32.40828293 13.86327545 33.30020844 13.87031555 34.21916199 C13.88384635 36.14465527 13.89293623 38.0701839 13.89802551 39.995718 C13.90634595 43.04295114 13.92687745 46.08988913 13.95056152 49.13703918 C14.00684128 56.69979617 14.04221699 64.26262459 14.07818604 71.82550049 C14.10941912 78.22780768 14.14858751 84.6299697 14.19844055 91.03215981 C14.21851112 94.03457703 14.22682695 97.0368821 14.23474121 100.03935242 C14.24771106 101.87674369 14.26123099 103.71413119 14.27539062 105.55151367 C14.27440872 106.3864032 14.27342682 107.22129272 14.27241516 108.08148193 C14.32866788 113.50885845 14.32866788 113.50885845 16.5625 118.33984375 C18.85086222 118.75971321 18.85086222 118.75971321 21.5625 118.33984375 C24.37581378 115.94400724 24.37581378 115.94400724 26.5625 113.33984375 C27.8825 113.99984375 29.2025 114.65984375 30.5625 115.33984375 C30.5625 121.12689617 27.47952646 123.35925499 23.5625 127.33984375 C16.0985664 134.65027743 6.92699145 138.17936101 -3.4375 138.65234375 C-10.60365587 138.41062818 -17.04000335 135.71407111 -22.640625 131.30078125 C-26.03450765 127.59702236 -27.71276615 122.99994194 -29.4375 118.33984375 C-29.82679688 118.83613281 -30.21609375 119.33242188 -30.6171875 119.84375 C-38.79993198 129.77993973 -48.51672343 135.52544852 -61.125 138.08984375 C-72.31705038 138.9345268 -83.49028519 137.77975239 -92.4375 130.33984375 C-100.07036211 123.17717848 -104.25751397 114.75358698 -104.640625 104.265625 C-104.88247977 90.10793645 -103.13591014 79.90340856 -93.38671875 69.05859375 C-81.82600088 57.71160344 -65.89074157 52.75576611 -51.02197266 47.19580078 C-49.85585449 46.75349121 -48.68973633 46.31118164 -47.48828125 45.85546875 C-46.44325439 45.46649414 -45.39822754 45.07751953 -44.3215332 44.67675781 C-38.15688299 41.81909045 -35.37829879 38.22144133 -32.4375 32.33984375 C-30.3129024 25.45614754 -30.54014307 18.44109673 -33.5625 11.90234375 C-36.54003599 6.57323104 -39.62373167 4.27776653 -45.4375 2.33984375 C-54.36179123 1.68710782 -61.51910363 1.89912146 -69.4375 6.33984375 C-70.4275 6.66984375 -71.4175 6.99984375 -72.4375 7.33984375 C-72.7675 9.31984375 -73.0975 11.29984375 -73.4375 13.33984375 C-72.75042969 13.654375 -72.06335938 13.96890625 -71.35546875 14.29296875 C-70.45441406 14.7209375 -69.55335938 15.14890625 -68.625 15.58984375 C-67.73167969 16.0075 -66.83835937 16.42515625 -65.91796875 16.85546875 C-63.24593618 18.45448037 -61.97090297 19.64402239 -60.4375 22.33984375 C-59.52337202 26.570343 -59.48421397 30.65231152 -61.64453125 34.4765625 C-64.86852922 38.36984612 -67.8451292 40.99842891 -72.98828125 41.67578125 C-80.31003297 41.77934209 -84.68419521 40.96899342 -89.97265625 35.85546875 C-95.08882778 29.41393802 -94.26892709 21.07851131 -93.4375 13.33984375 C-91.56429313 5.35406708 -84.71910032 0.04475001 -78.05078125 -4.16796875 C-54.66529917 -16.74566765 -21.74478401 -14.81014936 0 0 Z M-54.83203125 63.11328125 C-62.45008252 73.67846185 -63.60973627 86.60229017 -62.09375 99.1953125 C-61.00367476 105.19981026 -59.45629167 110.08354718 -55.3125 114.71484375 C-51.27427042 116.99732134 -47.97277216 117.10376371 -43.4375 116.33984375 C-37.60790019 113.71080854 -34.40829098 108.83629091 -31.4375 103.33984375 C-30.17722889 99.12205473 -30.25701336 94.92597349 -30.234375 90.55859375 C-30.22867493 89.70809448 -30.22297485 88.85759521 -30.21710205 87.98132324 C-30.20767188 86.18596637 -30.20112596 84.39059234 -30.19726562 82.59521484 C-30.18753468 79.84962967 -30.15648294 77.10478544 -30.125 74.359375 C-30.11847189 72.61328569 -30.11322066 70.86719103 -30.109375 69.12109375 C-30.0970282 68.30120972 -30.0846814 67.48132568 -30.07196045 66.63659668 C-30.08488821 63.33004004 -30.19159847 60.81452119 -31.72753906 57.84960938 C-39.01262984 51.41742757 -49.38231498 57.25203035 -54.83203125 63.11328125 Z " fill="#F68205" transform="translate(725.4375,321.66015625)"/>
<path d="M0 0 C0.66 0 1.32 0 2 0 C3.33063311 1.83304607 4.58717468 3.71994876 5.8125 5.625 C13.78812099 17.56360078 23.72026788 27.1872021 35 36 C36.83664374 37.55860743 38.66981751 39.12131054 40.5 40.6875 C47.22484003 46.31048067 54.29567196 51.43572775 61.37109375 56.60546875 C74.77964204 66.40918567 87.84115866 76.66973263 100 88 C100.82371094 88.75796875 101.64742187 89.5159375 102.49609375 90.296875 C117.30020865 104.43122495 129.6355803 123.5835263 130.171875 144.58984375 C130.21322488 148.73079994 130.13382781 152.86125094 130 157 C130.56952393 156.83991455 131.13904785 156.6798291 131.72583008 156.51489258 C150.68283507 152.2228557 173.43966419 158.01832119 189.73193359 168.06835938 C193.35339829 170.48338157 196.69868598 173.16888813 200 176 C200.72574219 176.61359375 201.45148438 177.2271875 202.19921875 177.859375 C216.59537349 191.09591806 224.9791695 211.69702323 226 231 C226.05285156 231.99 226.10570312 232.98 226.16015625 234 C226.52021381 247.52564043 224.40440489 261.20625247 220 274 C216.04 274 212.08 274 208 274 C208.433125 272.535625 208.86625 271.07125 209.3125 269.5625 C215.72880762 245.73050027 216.61145603 222.49855045 204.4375 200.12890625 C195.36688831 184.99022332 181.57123721 175.67808569 165 170 C163.34042643 169.63297892 161.67504764 169.28827813 160 169 C159.814375 169.804375 159.62875 170.60875 159.4375 171.4375 C155.5104042 181.16986785 146.72655574 190.14321973 137.1875 194.5 C129.83594407 197.05706293 122.25964421 197.23304652 115 194.3125 C111.35342242 192.39986675 108.88782518 190.77565035 107 187 C106.03332561 181.108374 106.75084681 176.06274466 109.57421875 170.81640625 C111.24612371 168.68644513 113.02843325 167.68604197 115.3125 166.25 C117.68244149 164.34259356 118.85209024 162.98088743 119.31152344 159.93408203 C120.02436337 140.25889894 113.96351936 121.83874543 101 107 C100.33355469 106.21367188 99.66710937 105.42734375 98.98046875 104.6171875 C88.9894669 93.13203583 77.53927778 83.89654214 65.41259766 74.8125 C61.00711333 71.50281414 56.63070811 68.1548674 52.25 64.8125 C50.46233183 63.44909779 48.67457386 62.08581331 46.88671875 60.72265625 C46.0467334 60.08215332 45.20674805 59.44165039 44.34130859 58.78173828 C42.32093488 57.24423178 40.29649522 55.71239126 38.26953125 54.18359375 C10.96127997 33.51734345 10.96127997 33.51734345 2 21 C-1.31460693 22.10486898 -1.96976106 22.87623086 -4.125 25.5 C-11.32337717 33.94830459 -19.28809023 41.14832892 -28 48 C-28.6408252 48.50660156 -29.28165039 49.01320312 -29.94189453 49.53515625 C-38.49369893 56.28563586 -47.1426853 62.8817231 -55.9375 69.3125 C-62.80641049 74.34079854 -69.51138537 79.48420532 -76 85 C-76.56058105 85.47179687 -77.12116211 85.94359375 -77.69873047 86.4296875 C-81.83591699 89.91177346 -85.93574046 93.43307749 -90 97 C-90.6909375 97.60328125 -91.381875 98.2065625 -92.09375 98.828125 C-108.18915346 113.86062446 -115.95507933 133.76876745 -117.34960938 155.38818359 C-117.42504482 159.10337932 -117.44327799 161.30451211 -115.4140625 164.48828125 C-113.34835364 166.22205531 -113.34835364 166.22205531 -111.08203125 167.6171875 C-107.57661171 169.94536483 -106.14732134 173.03069572 -105 177 C-104.1431648 182.2634162 -104.2901356 185.77992056 -107 190.4375 C-113.10951195 195.65604145 -119.02640856 196.59587108 -126.984375 196.3359375 C-137.8723863 195.12302432 -145.44169723 188.66058325 -152.1484375 180.33203125 C-157.19088606 173.36521967 -157.19088606 173.36521967 -158 169 C-175.96711808 173.85597786 -192.56267722 183.08384652 -202.203125 199.63671875 C-207.14594263 208.71377535 -209.95934935 217.90414943 -212 228 C-219.42857143 228.14285714 -219.42857143 228.14285714 -223 227 C-221.92426253 206.91956716 -212.15335531 189.60821986 -197.875 175.875 C-182.43168783 162.32487624 -162.58385815 155.53404849 -142.125 155.8125 C-140.74054688 155.8134668 -140.74054688 155.8134668 -139.328125 155.81445312 C-135.36864607 155.84027581 -131.82694703 155.90479178 -128 157 C-128.04640625 156.030625 -128.0928125 155.06125 -128.140625 154.0625 C-128.936022 130.15238412 -119.40246242 110.66739364 -103.41552734 93.27636719 C-96.44865659 85.88389464 -89.01968564 79.23865131 -81 73 C-79.65984132 71.94310754 -78.32002329 70.88578307 -76.98046875 69.828125 C-69.21347127 63.72111089 -61.35671033 57.76091557 -53.375 51.9375 C-24.43428009 30.83065813 -24.43428009 30.83065813 -2 3.25 C-1.34 2.1775 -0.68 1.105 0 0 Z M-147 166 C-144.486582 174.0429376 -138.993424 179.64560393 -132 184 C-127.68284941 185.4390502 -123.51173786 185.56858235 -119 185 C-116.36483958 183.20808542 -116.36483958 183.20808542 -115 181 C-119.23655057 173.99339714 -124.16520126 169.79814241 -132 167 C-136.987357 165.80737115 -141.90374914 165.89807498 -147 166 Z M119.9375 176 C117.73240479 178.79880239 117.73240479 178.79880239 118.0625 181.8125 C118.79202617 184.16515569 118.79202617 184.16515569 121 185 C128.84834784 185.73401814 133.54494081 184.44733359 140 179.875 C143.80194681 176.58601427 146.57576943 172.37565021 149 168 C149 167.34 149 166.68 149 166 C137.57168038 165.6371962 128.04990645 167.32888787 119.9375 176 Z " fill="#F69401" transform="translate(433,0)"/>
<path d="M0 0 C6.07643032 4.68049362 7.56750463 9.41005176 8.64519501 16.776968 C9.18782841 21.70622452 9.27898863 26.57724527 9.25878906 31.5324707 C9.2622937 32.61537888 9.26579834 33.69828705 9.26940918 34.81401062 C9.27812759 38.35133497 9.27241461 41.88845529 9.265625 45.42578125 C9.266974 47.90292906 9.26891649 50.3800766 9.27142334 52.85722351 C9.27436077 58.02894633 9.27011965 63.20059974 9.26074219 68.37231445 C9.2493186 74.99422093 9.25593433 81.61596577 9.26788712 88.2378664 C9.27511753 93.34483558 9.27281285 98.45176647 9.26763153 103.5587368 C9.26629986 106.00073453 9.26792581 108.44273575 9.27259064 110.88472939 C9.2776785 114.29474726 9.26991493 117.70450353 9.25878906 121.11450195 C9.26283752 122.1177652 9.26688599 123.12102844 9.27105713 124.1546936 C9.19960766 135.99610367 9.19960766 135.99610367 5.58984375 140.92578125 C-1.65901787 147.00934124 -9.77185827 147.71559096 -19 147 C-24.41890851 146.22999524 -28.76999495 144.54139957 -33 141 C-36.74993651 135.45522029 -36.42193801 130.08825566 -36.38476562 123.64208984 C-36.3901384 122.5064711 -36.39551117 121.37085236 -36.40104675 120.20082092 C-36.41081472 117.74055048 -36.41377188 115.28024563 -36.41069031 112.81995773 C-36.40621261 108.92843919 -36.42021073 105.0373754 -36.43908691 101.14590454 C-36.48008824 92.18657958 -36.49149009 83.22726333 -36.50261688 74.26786041 C-36.51396196 65.39552503 -36.53692413 56.5234144 -36.58000183 47.65117264 C-36.59360871 43.81328973 -36.58939504 39.97568458 -36.58459473 36.13778687 C-36.5939318 33.79156129 -36.60409973 31.44533883 -36.61523438 29.09912109 C-36.60908615 28.02889206 -36.60293793 26.95866302 -36.59660339 25.85600281 C-36.60480606 24.87471909 -36.61300873 23.89343536 -36.62145996 22.88241577 C-36.62217247 22.03109762 -36.62288498 21.17977947 -36.62361908 20.3026638 C-37.09175051 17.43867884 -37.97546965 16.06173592 -40 14 C-44.55448494 13.49394612 -47.88733277 14.00597952 -52 16 C-52.99 15.01 -53.98 14.02 -55 13 C-53.22623699 7.67871098 -47.74005645 5.59168554 -43 3 C-30.75207514 -2.44352216 -12.56071181 -7.62430038 0 0 Z " fill="#F68913" transform="translate(450,313)"/>
<path d="M0 0 C0.75182488 10.14963585 -2.87849603 17.28873009 -9.4140625 24.89453125 C-16.57338298 30.72364566 -24.38469054 32.90043679 -33.375 34.1875 C-34.42953369 34.34839111 -35.48406738 34.50928223 -36.57055664 34.67504883 C-39.71079136 35.14171569 -42.85354269 35.57753286 -46 36 C-46.83289551 36.11472656 -47.66579102 36.22945312 -48.52392578 36.34765625 C-82.10916563 40.80780998 -146.96435297 48.37428462 -175 27 C-181.18967689 21.9368443 -185.40373891 15.91931474 -187 8 C-187.03888349 5.66699067 -187.0448635 3.33290199 -187 1 C-181.11593935 2.02159531 -175.26249636 3.13653981 -169.42578125 4.40234375 C-154.0033561 7.74325711 -138.70634399 10.44761081 -123 12 C-121.72253906 12.13148438 -120.44507813 12.26296875 -119.12890625 12.3984375 C-80.35249253 15.6554802 -41.79421593 10.62669471 -4.38476562 0.57910156 C-2 0 -2 0 0 0 Z " fill="#F68001" transform="translate(533,673)"/>
<path d="M0 0 C0.66 0 1.32 0 2 0 C11.10952768 22.65821604 13.49722938 47.94286856 5.3125 71.1875 C-1.65935804 87.2703089 -14.39306456 96.42524456 -30 103 C-37.57587352 105.87617955 -44.89822932 107.63423157 -53 108 C-53.05227808 104.86331494 -53.08063429 102.87426439 -52 100 C-50.10272102 98.56475269 -48.22329993 97.92176744 -45.98828125 97.10546875 C-28.77218577 90.73663866 -13.33023947 80.43523263 -5.125 63.5 C0.69550548 49.487672 0.03321988 35.45237123 -4 21 C-4.6084375 21.556875 -5.216875 22.11375 -5.84375 22.6875 C-14.80046338 30.4851093 -24.59235861 35.22697535 -35.41796875 39.92578125 C-48.14273865 45.51477155 -58.12235102 51.75484218 -63.97265625 65.06640625 C-67.19267472 74.26121185 -65.56386785 81.75848764 -63 91 C-57.73015913 84.71018993 -57.94585768 80.54059123 -58.16015625 72.54296875 C-57.99931255 68.98479217 -57.28929163 66.30159777 -56 63 C-55.67 63 -55.34 63 -55 63 C-54.34 66.63 -53.68 70.26 -53 74 C-51.31002677 72.35697047 -49.64783606 70.68528688 -48 69 C-46.8553125 67.9171875 -46.8553125 67.9171875 -45.6875 66.8125 C-43.50918941 63.18198235 -43.80605064 60.66027247 -43.9921875 56.515625 C-44.00304638 53.01906641 -43.14291343 50.28587611 -42 47 C-41.67 47 -41.34 47 -41 47 C-40.34 50.3 -39.68 53.6 -39 57 C-37.845 56.13375 -36.69 55.2675 -35.5 54.375 C-34.77425781 53.83230469 -34.04851562 53.28960937 -33.30078125 52.73046875 C-31.79186715 51.59558089 -30.28900264 50.45259495 -28.79296875 49.30078125 C-28.09816406 48.76839844 -27.40335937 48.23601562 -26.6875 47.6875 C-26.05199219 47.19636719 -25.41648437 46.70523438 -24.76171875 46.19921875 C-23 45 -23 45 -20 44 C-21.40844718 47.21524305 -23.10344786 49.32183868 -25.625 51.75 C-26.25664062 52.36359375 -26.88828125 52.9771875 -27.5390625 53.609375 C-28.26222656 54.29773438 -28.26222656 54.29773438 -29 55 C-28.38640625 54.84660156 -27.7728125 54.69320312 -27.140625 54.53515625 C-25.09375 54.0234375 -23.046875 53.51171875 -21 53 C-22.51718483 57.24811753 -25.1936996 58.77367335 -29 61 C-30.134375 61.350625 -31.26875 61.70125 -32.4375 62.0625 C-37.91413331 64.18958526 -40.23322731 70.20049636 -43 75 C-38.71 73.35 -34.42 71.7 -30 70 C-32.1143358 74.2286716 -33.14950107 75.43300071 -37 78 C-37.74894531 78.16757812 -38.49789062 78.33515625 -39.26953125 78.5078125 C-43.07316974 79.430969 -45.92088316 80.37885279 -48.17236328 83.76123047 C-50.92151476 88.97364098 -52.97797201 94.47401355 -55 100 C-55.45632813 101.19753906 -55.91265625 102.39507812 -56.3828125 103.62890625 C-57.29490889 106.07498294 -58.17126687 108.52470499 -59 111 C-66.52462376 108.33529344 -69.63501838 103.02073137 -73.25 96.125 C-78.48523973 85.07891828 -80.10171353 73.21155535 -76.03125 61.43359375 C-68.39719265 43.41837507 -52.86096591 34.2224229 -36.03955078 26.01269531 C-23.351156 19.78635153 -8.04190872 12.06286308 0 0 Z " fill="#1CD733" transform="translate(496,184)"/>
<path d="M0 0 C0.66 0 1.32 0 2 0 C3.13021508 1.13021508 4.25825524 2.26264485 5.37890625 3.40234375 C18.12139909 15.96060778 35.2810458 23.82618812 51.6875 30.5 C55.12660071 32.05732862 57.92755031 33.82680388 61 36 C59.66511872 39.59391114 58.03977277 42.75490696 56 46 C52.77457815 44.75728055 49.73607436 43.37446236 46.6875 41.75 C42.3051301 39.51316536 37.81863939 37.82143728 33.1875 36.1875 C23.40903854 32.68314705 15.04018026 27.61440789 7 21 C2.67370496 33.70200225 3.37323976 49.86677954 9 62 C18.26634294 79.71161753 33.32804238 87.99902888 51.46875 94.9453125 C57.17527089 97.27091519 61.83961423 100.39750239 66 105 C66 105.66 66 106.32 66 107 C44.62549478 105.1582059 22.98401935 100.6211622 8 84 C-3.23086033 70.58044838 -6.39605868 55.64459964 -6.375 38.5625 C-6.3747583 36.72546509 -6.3747583 36.72546509 -6.37451172 34.85131836 C-6.22584555 22.9087305 -4.80088328 11.05068178 0 0 Z " fill="#1CD733" transform="translate(363,193)"/>
<path d="M0 0 C0.87637604 2.99079355 1.07690095 5.56320516 0.9921875 8.671875 C0.94686753 13.62806741 1.37786029 18.35510287 2.125 23.25 C2.31316284 24.51179077 2.31316284 24.51179077 2.50512695 25.79907227 C3.76446288 33.61126041 5.78075325 41.16895105 8.01806641 48.75292969 C8.27378418 49.62723633 8.52950195 50.50154297 8.79296875 51.40234375 C9.0252417 52.17054443 9.25751465 52.93874512 9.49682617 53.73022461 C10.04747749 56.21416704 10.08647701 58.46362075 10 61 C8.71086513 61.67154933 7.41859796 62.33708859 6.125 63 C5.40570313 63.37125 4.68640625 63.7425 3.9453125 64.125 C2 65 2 65 0 65 C-0.23074219 64.16339844 -0.46148437 63.32679688 -0.69921875 62.46484375 C-1.02535156 61.30082031 -1.35148437 60.13679688 -1.6875 58.9375 C-1.86394043 58.30553711 -2.04038086 57.67357422 -2.22216797 57.02246094 C-3.50283866 52.51956504 -5.02173173 48.15066218 -6.625 43.75 C-9.51467064 35.31216173 -10.32033711 26.85590601 -11 18 C-26.17372018 26.97153418 -37.38826532 37.09198068 -42.2890625 54.49609375 C-43.53318175 60.62782434 -43.82715759 66.75174701 -44 73 C-48.3972938 72.21775257 -51.94559445 70.82845741 -56 69 C-57.13407068 53.28052032 -51.10516281 39.69866925 -41 28 C-30.25931881 16.01128191 -15.47860558 5.15953519 0 0 Z " fill="#1CD733" transform="translate(454,143)"/>
<path d="M0 0 C0 0.66 0 1.32 0 2 C-0.9075 2.598125 -1.815 3.19625 -2.75 3.8125 C-11.44177717 9.66273464 -14.37951066 19.31213033 -17 29 C-27.17758697 29.31860272 -36.93020011 28.35067975 -47 27 C-38.4734789 13.76535637 -16.34733628 0 0 0 Z " fill="#F9AA56" transform="translate(314,374)"/>
<path d="M0 0 C0.66 0.33 1.32 0.66 2 1 C-0.11173479 3.27568935 -2.18021202 4.78685155 -4.875 6.3125 C-9.96535081 9.43570059 -13.17901805 12.9914479 -15.4609375 18.57421875 C-16.85550933 21.03744292 -17.60156566 21.85250103 -20.28710938 22.84667969 C-23.15205879 23.36898996 -25.97354046 23.68972216 -28.875 23.9375 C-29.85597656 24.04900391 -30.83695313 24.16050781 -31.84765625 24.27539062 C-36.57671981 24.78914179 -41.2380969 25.13720738 -46 25 C-37.27481575 12.30882292 -19.98221601 7.79731609 -6.14379883 2.83447266 C-3.95673559 2.03454265 -3.95673559 2.03454265 -1.84643555 0.83349609 C-1.23711182 0.55844238 -0.62778809 0.28338867 0 0 Z " fill="#F8A54B" transform="translate(680,371)"/>
<path d="M0 0 C3.35693743 0.63180455 5.62948838 1.89020435 8.4375 3.8125 C9.613125 4.616875 9.613125 4.616875 10.8125 5.4375 C13.28417395 7.20298139 15.64950326 9.0768663 18 11 C18.66 11.33 19.32 11.66 20 12 C20.33 8.37 20.66 4.74 21 1 C23.81973306 3.81973306 23.55938362 6.13235923 24 10.0625 C24.60007417 15.11838018 25.36334889 20.04180327 26.55859375 24.9921875 C27.28625554 28.30208272 27.63269837 31.6330684 28 35 C21.51813243 34.72417585 16.90890586 32.23472137 12 28 C11.67 27.01 11.34 26.02 11 25 C11.61488281 25.2165625 12.22976563 25.433125 12.86328125 25.65625 C13.67152344 25.9346875 14.47976563 26.213125 15.3125 26.5 C16.11300781 26.7784375 16.91351563 27.056875 17.73828125 27.34375 C20.08769422 28.13933107 20.08769422 28.13933107 23 28 C19.02944268 21.11068862 15.96571609 17.30938973 8.3125 14.87109375 C4.94083122 13.60102257 3.27914737 11.73497684 1 9 C3 8 3 8 6.125 8.9375 C7.548125 9.4634375 7.548125 9.4634375 9 10 C8.3503125 9.36191406 7.700625 8.72382813 7.03125 8.06640625 C6.1959375 7.24011719 5.360625 6.41382813 4.5 5.5625 C3.6646875 4.73878906 2.829375 3.91507813 1.96875 3.06640625 C0 1 0 1 0 0 Z " fill="#1CD733" transform="translate(387,237)"/>
<path d="M0 0 C2.0140956 3.0211434 2.26836596 3.80660017 2.4140625 7.23046875 C2.45273437 8.03291016 2.49140625 8.83535156 2.53125 9.66210938 C2.5621875 10.49548828 2.593125 11.32886719 2.625 12.1875 C2.66367187 13.03248047 2.70234375 13.87746094 2.7421875 14.74804688 C2.83636279 16.83167524 2.91926675 18.91580753 3 21 C4.0828125 20.566875 4.0828125 20.566875 5.1875 20.125 C7.79166667 19.08333333 10.39583333 18.04166667 13 17 C8.96942149 24.22554927 4.2507709 28.94426304 -3 33 C-3.66 33 -4.32 33 -5 33 C-4.90460938 32.20335937 -4.80921875 31.40671875 -4.7109375 30.5859375 C-4.09840858 24.73130062 -3.85255236 20.55809978 -6 15 C-6.17261588 12.30719229 -6.09318005 9.70222157 -6 7 C-5.34 7 -4.68 7 -4 7 C-3.34 8.98 -2.68 10.96 -2 13 C-1.34 8.71 -0.68 4.42 0 0 Z " fill="#1CD733" transform="translate(437,188)"/>
<path d="M0 0 C2.34914492 2.34914492 2.73140357 3.95679446 3.625 7.125 C3.88539063 8.03507813 4.14578125 8.94515625 4.4140625 9.8828125 C4.70410156 10.93082031 4.70410156 10.93082031 5 12 C3.02 12.99 3.02 12.99 1 14 C-0.04976964 10.85069107 -0.10131595 8.61185544 -0.0625 5.3125 C-0.05347656 4.31863281 -0.04445313 3.32476562 -0.03515625 2.30078125 C-0.02355469 1.54152344 -0.01195312 0.78226563 0 0 Z " fill="#1CD733" transform="translate(425,212)"/>
</svg>
